<svg xmlns="http://www.w3.org/2000/svg" xmlns:xlink="http://www.w3.org/1999/xlink" width="500" zoomAndPan="magnify" viewBox="0 0 375 374.999991" height="500" preserveAspectRatio="xMidYMid meet" version="1.0"><defs><g/><clipPath id="3a058bb18f"><path d="M 112.441406 195.554688 L 262.558594 195.554688 L 262.558594 207.707031 L 112.441406 207.707031 Z M 112.441406 195.554688 " clip-rule="nonzero"/></clipPath><clipPath id="f9e235a3d4"><path d="M 285.226562 142.351562 L 296.113281 142.351562 L 296.113281 153.242188 L 285.226562 153.242188 Z M 285.226562 142.351562 " clip-rule="nonzero"/></clipPath><clipPath id="9877046e18"><path d="M 290.671875 142.351562 C 287.664062 142.351562 285.226562 144.789062 285.226562 147.796875 C 285.226562 150.804688 287.664062 153.242188 290.671875 153.242188 C 293.675781 153.242188 296.113281 150.804688 296.113281 147.796875 C 296.113281 144.789062 293.675781 142.351562 290.671875 142.351562 Z M 290.671875 142.351562 " clip-rule="nonzero"/></clipPath><clipPath id="b9121e3124"><path d="M 300.089844 142.351562 L 310.976562 142.351562 L 310.976562 153.242188 L 300.089844 153.242188 Z M 300.089844 142.351562 " clip-rule="nonzero"/></clipPath><clipPath id="8ca8d19d36"><path d="M 305.53125 142.351562 C 302.527344 142.351562 300.089844 144.789062 300.089844 147.796875 C 300.089844 150.804688 302.527344 153.242188 305.53125 153.242188 C 308.539062 153.242188 310.976562 150.804688 310.976562 147.796875 C 310.976562 144.789062 308.539062 142.351562 305.53125 142.351562 Z M 305.53125 142.351562 " clip-rule="nonzero"/></clipPath></defs><g fill="#000000" fill-opacity="1"><g transform="translate(259.392381, 206.58662)"><g><path d="M 23.09375 -64.8125 L 23.09375 -40.09375 L 72.875 -40.09375 L 72.875 -25.484375 L 23.09375 -25.484375 L 23.09375 -0.109375 L 8.390625 -0.109375 L 8.390625 -64.8125 Z M 23.09375 -64.8125 "/></g></g></g><g fill="#000000" fill-opacity="1"><g transform="translate(48.727219, 190.000497)"><g><path d="M 4.890625 -9.359375 L 45.875 -9.359375 L 45.875 -0.140625 L 4.890625 -0.140625 Z M 4.890625 -40.71875 L 45.875 -40.71875 L 45.875 -31.5 L 4.890625 -31.5 Z M 4.890625 -40.71875 "/></g></g></g><g fill="#000000" fill-opacity="1"><g transform="translate(99.623669, 190.000497)"><g><path d="M 4.0625 -26.421875 L 46.5625 -26.421875 C 47.851562 -26.421875 48.957031 -25.984375 49.875 -25.109375 C 50.832031 -24.097656 51.265625 -23 51.171875 -21.8125 L 50.90625 -19.265625 C 50.445312 -16.460938 49.597656 -13.617188 48.359375 -10.734375 C 47.023438 -7.835938 45.175781 -5.390625 42.8125 -3.390625 C 40.457031 -1.398438 37.675781 -0.316406 34.46875 -0.140625 L 16.859375 -0.140625 L 16.859375 -9.359375 L 33.359375 -9.359375 C 35.097656 -9.453125 36.617188 -10.113281 37.921875 -11.34375 C 39.234375 -12.582031 40.164062 -14.03125 40.71875 -15.6875 C 41.082031 -16.644531 40.804688 -17.148438 39.890625 -17.203125 L 4.0625 -17.203125 Z M 4.0625 -40.71875 L 50.703125 -40.71875 L 50.703125 -31.5 L 4.0625 -31.5 Z M 4.0625 -40.71875 "/></g></g></g><g fill="#000000" fill-opacity="1"><g transform="translate(154.371744, 190.000497)"><g><path d="M 4.890625 -35.765625 L 13.40625 -35.765625 L 13.40625 -42.03125 L 22.703125 -42.03125 L 22.703125 -35.765625 L 37.96875 -35.765625 L 38.59375 -42.03125 L 47.875 -42.03125 L 47.25 -35.765625 L 55.375 -35.765625 L 55.375 -26.546875 L 45.953125 -26.546875 L 44.984375 -19.953125 C 44.523438 -16.691406 43.675781 -13.617188 42.4375 -10.734375 C 41.113281 -7.835938 39.269531 -5.390625 36.90625 -3.390625 C 34.539062 -1.398438 31.753906 -0.316406 28.546875 -0.140625 L 13.96875 -0.140625 L 13.96875 -9.359375 L 27.453125 -9.359375 C 29.191406 -9.453125 30.710938 -10.113281 32.015625 -11.34375 C 33.328125 -12.582031 34.234375 -13.992188 34.734375 -15.578125 C 35.242188 -17.160156 35.613281 -18.894531 35.84375 -20.78125 L 36.65625 -26.546875 L 22.703125 -26.546875 L 22.703125 -15.890625 L 13.40625 -15.890625 L 13.40625 -26.546875 L 4.890625 -26.546875 Z M 4.890625 -35.765625 "/></g></g></g><g fill="#000000" fill-opacity="1"><g transform="translate(214.278242, 190.000497)"><g><path d="M 4.0625 -40.71875 L 29.515625 -40.71875 L 29.515625 -31.5 L 4.0625 -31.5 Z M 50.90625 -40.71875 L 42.921875 -16.234375 C 41.085938 -11.003906 38.796875 -7.054688 36.046875 -4.390625 C 33.296875 -1.734375 30.289062 -0.316406 27.03125 -0.140625 L 10.53125 -0.140625 L 10.53125 -9.359375 L 24.6875 -9.359375 C 26.4375 -9.453125 28.078125 -10.113281 29.609375 -11.34375 C 31.148438 -12.582031 32.304688 -13.992188 33.078125 -15.578125 C 33.859375 -17.160156 34.523438 -18.894531 35.078125 -20.78125 L 41.265625 -40.71875 Z M 50.90625 -40.71875 "/></g></g></g><g clip-path="url(#3a058bb18f)"><path fill="#000000" d="M 112.441406 195.554688 L 262.558594 195.554688 L 262.558594 207.707031 L 112.441406 207.707031 Z M 112.441406 195.554688 " fill-opacity="1" fill-rule="nonzero"/></g><g clip-path="url(#f9e235a3d4)"><g clip-path="url(#9877046e18)"><path fill="#009854" d="M 285.226562 142.351562 L 296.113281 142.351562 L 296.113281 153.242188 L 285.226562 153.242188 Z M 285.226562 142.351562 " fill-opacity="1" fill-rule="nonzero"/></g></g><g fill="#000000" fill-opacity="1"><g transform="translate(284.906206, 207.718096)"><g><path d="M 1.203125 0 L 1.203125 -10.328125 L 4.765625 -10.328125 L 4.765625 -9.25 L 4.8125 -9.25 C 5.738281 -10.175781 6.726562 -10.640625 7.78125 -10.640625 C 8.289062 -10.640625 8.796875 -10.570312 9.296875 -10.4375 C 9.796875 -10.300781 10.273438 -10.09375 10.734375 -9.8125 C 11.203125 -9.53125 11.582031 -9.128906 11.875 -8.609375 C 12.164062 -8.085938 12.3125 -7.488281 12.3125 -6.8125 L 12.3125 0 L 8.734375 0 L 8.734375 -5.84375 C 8.734375 -6.375 8.5625 -6.84375 8.21875 -7.25 C 7.882812 -7.65625 7.441406 -7.859375 6.890625 -7.859375 C 6.347656 -7.859375 5.859375 -7.648438 5.421875 -7.234375 C 4.984375 -6.816406 4.765625 -6.351562 4.765625 -5.84375 L 4.765625 0 Z M 1.203125 0 "/></g></g></g><g fill="#000000" fill-opacity="1"><g transform="translate(298.218568, 207.718096)"><g><path d="M 1.546875 -16.09375 C 1.960938 -16.507812 2.457031 -16.71875 3.03125 -16.71875 C 3.613281 -16.71875 4.113281 -16.507812 4.53125 -16.09375 C 4.945312 -15.675781 5.15625 -15.175781 5.15625 -14.59375 C 5.15625 -14.019531 4.945312 -13.523438 4.53125 -13.109375 C 4.113281 -12.691406 3.613281 -12.484375 3.03125 -12.484375 C 2.457031 -12.484375 1.960938 -12.691406 1.546875 -13.109375 C 1.128906 -13.523438 0.921875 -14.019531 0.921875 -14.59375 C 0.921875 -15.175781 1.128906 -15.675781 1.546875 -16.09375 Z M 1.203125 -10.328125 L 1.203125 0 L 4.765625 0 L 4.765625 -10.328125 Z M 1.203125 -10.328125 "/></g></g></g><g fill="#000000" fill-opacity="1"><g transform="translate(304.300765, 207.718096)"><g><path d="M 1.203125 0 L 1.203125 -10.328125 L 4.765625 -10.328125 L 4.765625 -8.84375 L 4.8125 -8.84375 C 4.84375 -8.894531 4.882812 -8.957031 4.9375 -9.03125 C 5 -9.113281 5.128906 -9.253906 5.328125 -9.453125 C 5.535156 -9.660156 5.753906 -9.84375 5.984375 -10 C 6.210938 -10.164062 6.503906 -10.3125 6.859375 -10.4375 C 7.222656 -10.570312 7.59375 -10.640625 7.96875 -10.640625 C 8.363281 -10.640625 8.75 -10.582031 9.125 -10.46875 C 9.5 -10.363281 9.773438 -10.257812 9.953125 -10.15625 L 10.234375 -9.984375 L 8.734375 -6.96875 C 8.296875 -7.34375 7.679688 -7.53125 6.890625 -7.53125 C 6.460938 -7.53125 6.09375 -7.4375 5.78125 -7.25 C 5.46875 -7.0625 5.25 -6.832031 5.125 -6.5625 C 5 -6.289062 4.90625 -6.0625 4.84375 -5.875 C 4.789062 -5.6875 4.765625 -5.539062 4.765625 -5.4375 L 4.765625 0 Z M 1.203125 0 "/></g></g></g><g fill="#009854" fill-opacity="1"><g transform="translate(315.82629, 207.083797)"><g><path d="M 12.8125 -6.140625 C 13.207031 -6.140625 13.488281 -6.269531 13.65625 -6.53125 C 13.832031 -6.789062 13.921875 -7.242188 13.921875 -7.890625 C 13.921875 -9.273438 13.398438 -10.414062 12.359375 -11.3125 C 11.316406 -12.207031 10.007812 -12.65625 8.4375 -12.65625 C 6.925781 -12.65625 5.644531 -12.140625 4.59375 -11.109375 C 3.539062 -10.078125 3.015625 -8.832031 3.015625 -7.375 C 3.015625 -5.925781 3.539062 -4.710938 4.59375 -3.734375 C 5.65625 -2.753906 6.9375 -2.265625 8.4375 -2.265625 C 9.144531 -2.265625 9.773438 -2.363281 10.328125 -2.5625 C 10.878906 -2.769531 11.253906 -2.972656 11.453125 -3.171875 L 11.78125 -3.484375 L 13.84375 -2.109375 C 13.800781 -2.046875 13.738281 -1.957031 13.65625 -1.84375 C 13.570312 -1.738281 13.367188 -1.550781 13.046875 -1.28125 C 12.734375 -1.007812 12.382812 -0.769531 12 -0.5625 C 11.625 -0.351562 11.113281 -0.164062 10.46875 0 C 9.832031 0.175781 9.15625 0.265625 8.4375 0.265625 C 6.988281 0.265625 5.65625 -0.0507812 4.4375 -0.6875 C 3.21875 -1.320312 2.238281 -2.222656 1.5 -3.390625 C 0.769531 -4.566406 0.40625 -5.890625 0.40625 -7.359375 C 0.40625 -8.835938 0.769531 -10.160156 1.5 -11.328125 C 2.238281 -12.503906 3.21875 -13.40625 4.4375 -14.03125 C 5.65625 -14.664062 6.988281 -14.984375 8.4375 -14.984375 C 10.570312 -14.984375 12.375 -14.316406 13.84375 -12.984375 C 15.3125 -11.648438 16.046875 -9.953125 16.046875 -7.890625 C 16.046875 -6.585938 15.6875 -5.609375 14.96875 -4.953125 C 14.257812 -4.304688 13.410156 -3.984375 12.421875 -3.984375 C 11.410156 -3.984375 10.582031 -4.253906 9.9375 -4.796875 L 9.78125 -4.5625 C 9.195312 -3.925781 8.445312 -3.609375 7.53125 -3.609375 C 6.550781 -3.609375 5.742188 -3.953125 5.109375 -4.640625 C 4.472656 -5.328125 4.15625 -6.175781 4.15625 -7.1875 C 4.15625 -8.207031 4.472656 -9.066406 5.109375 -9.765625 C 5.742188 -10.460938 6.550781 -10.8125 7.53125 -10.8125 C 8.4375 -10.8125 9.1875 -10.523438 9.78125 -9.953125 L 9.78125 -10.609375 L 11.90625 -10.609375 L 11.90625 -6.890625 C 11.90625 -6.828125 11.914062 -6.753906 11.9375 -6.671875 C 11.957031 -6.585938 12.046875 -6.476562 12.203125 -6.34375 C 12.359375 -6.207031 12.5625 -6.140625 12.8125 -6.140625 Z M 7.34375 -8.265625 C 7.0625 -7.984375 6.921875 -7.632812 6.921875 -7.21875 C 6.921875 -6.8125 7.050781 -6.472656 7.3125 -6.203125 C 7.582031 -5.929688 7.9375 -5.796875 8.375 -5.796875 C 8.769531 -5.796875 9.101562 -5.929688 9.375 -6.203125 C 9.644531 -6.484375 9.78125 -6.828125 9.78125 -7.234375 C 9.78125 -7.640625 9.640625 -7.984375 9.359375 -8.265625 C 9.085938 -8.546875 8.757812 -8.6875 8.375 -8.6875 C 7.96875 -8.6875 7.625 -8.546875 7.34375 -8.265625 Z M 7.34375 -8.265625 "/></g></g></g><g clip-path="url(#b9121e3124)"><g clip-path="url(#8ca8d19d36)"><path fill="#009854" d="M 300.089844 142.351562 L 310.976562 142.351562 L 310.976562 153.242188 L 300.089844 153.242188 Z M 300.089844 142.351562 " fill-opacity="1" fill-rule="nonzero"/></g></g><g fill="#009854" fill-opacity="1"><g transform="translate(45.242702, 205.902013)"><g><path d="M 0.875 -6.9375 L 7.890625 -6.9375 C 8.109375 -6.9375 8.296875 -6.863281 8.453125 -6.71875 C 8.617188 -6.539062 8.691406 -6.351562 8.671875 -6.15625 L 8.296875 -3.40625 C 8.222656 -2.84375 8.078125 -2.316406 7.859375 -1.828125 C 7.640625 -1.335938 7.328125 -0.921875 6.921875 -0.578125 C 6.515625 -0.242188 6.039062 -0.0625 5.5 -0.03125 L 2.6875 -0.03125 L 2.6875 -1.59375 L 5.3125 -1.59375 C 5.601562 -1.613281 5.859375 -1.726562 6.078125 -1.9375 C 6.304688 -2.144531 6.460938 -2.382812 6.546875 -2.65625 C 6.640625 -2.925781 6.703125 -3.222656 6.734375 -3.546875 L 6.953125 -5.078125 C 6.972656 -5.265625 6.90625 -5.363281 6.75 -5.375 L 0.875 -5.375 Z M 0.875 -6.9375 "/></g></g><g transform="translate(54.758326, 205.902013)"><g><path d="M 6.921875 -6.9375 C 7.316406 -6.925781 7.671875 -6.800781 7.984375 -6.5625 C 8.296875 -6.320312 8.546875 -6.03125 8.734375 -5.6875 C 8.929688 -5.351562 9.078125 -5 9.171875 -4.625 C 9.265625 -4.25 9.3125 -3.867188 9.3125 -3.484375 C 9.3125 -2.960938 9.226562 -2.453125 9.0625 -1.953125 C 8.90625 -1.460938 8.644531 -1.023438 8.28125 -0.640625 C 7.914062 -0.265625 7.460938 -0.0625 6.921875 -0.03125 L 3.171875 -0.03125 C 2.628906 -0.0507812 2.171875 -0.25 1.796875 -0.625 C 1.429688 -1.007812 1.171875 -1.453125 1.015625 -1.953125 C 0.867188 -2.453125 0.796875 -2.960938 0.796875 -3.484375 C 0.796875 -3.992188 0.875 -4.5 1.03125 -5 C 1.1875 -5.5 1.445312 -5.941406 1.8125 -6.328125 C 2.175781 -6.710938 2.628906 -6.914062 3.171875 -6.9375 Z M 6.515625 -1.59375 C 6.816406 -1.613281 7.066406 -1.722656 7.265625 -1.921875 C 7.460938 -2.128906 7.601562 -2.367188 7.6875 -2.640625 C 7.769531 -2.921875 7.8125 -3.203125 7.8125 -3.484375 C 7.8125 -3.765625 7.765625 -4.039062 7.671875 -4.3125 C 7.585938 -4.582031 7.445312 -4.820312 7.25 -5.03125 C 7.0625 -5.238281 6.816406 -5.351562 6.515625 -5.375 L 3.546875 -5.375 C 3.242188 -5.351562 2.992188 -5.238281 2.796875 -5.03125 C 2.609375 -4.820312 2.46875 -4.582031 2.375 -4.3125 C 2.28125 -4.039062 2.234375 -3.765625 2.234375 -3.484375 C 2.234375 -3.203125 2.273438 -2.921875 2.359375 -2.640625 C 2.453125 -2.367188 2.597656 -2.128906 2.796875 -1.921875 C 2.992188 -1.722656 3.242188 -1.613281 3.546875 -1.59375 Z M 6.515625 -1.59375 "/></g></g><g transform="translate(64.895044, 205.902013)"><g><path d="M 0.6875 -6.9375 L 5.03125 -6.9375 L 5.03125 -5.375 L 0.6875 -5.375 Z M 8.671875 -6.9375 L 7.3125 -2.765625 C 7 -1.878906 6.609375 -1.207031 6.140625 -0.75 C 5.671875 -0.300781 5.160156 -0.0625 4.609375 -0.03125 L 1.796875 -0.03125 L 1.796875 -1.59375 L 4.203125 -1.59375 C 4.503906 -1.613281 4.785156 -1.726562 5.046875 -1.9375 C 5.304688 -2.144531 5.503906 -2.382812 5.640625 -2.65625 C 5.773438 -2.925781 5.890625 -3.222656 5.984375 -3.546875 L 7.03125 -6.9375 Z M 8.671875 -6.9375 "/></g></g><g transform="translate(74.035668, 205.902013)"><g><path d="M 2.484375 -6.96875 L 2.484375 -4.3125 L 7.84375 -4.3125 L 7.84375 -2.75 L 2.484375 -2.75 L 2.484375 -0.015625 L 0.90625 -0.015625 L 0.90625 -6.96875 Z M 2.484375 -6.96875 "/></g></g><g transform="translate(82.707543, 205.902013)"><g><path d="M 0.765625 -1.59375 L 3.671875 -1.59375 L 3.671875 -5.375 L 0.765625 -5.375 L 0.765625 -6.9375 L 8.140625 -6.9375 L 8.140625 -5.375 L 5.25 -5.375 L 5.25 -1.59375 L 8.140625 -1.59375 L 8.140625 -0.03125 L 0.765625 -0.03125 Z M 0.765625 -1.59375 "/></g></g><g transform="translate(91.613792, 205.902013)"><g><path d="M 0.6875 -6.9375 L 5.03125 -6.9375 L 5.03125 -5.375 L 0.6875 -5.375 Z M 8.671875 -6.9375 L 7.3125 -2.765625 C 7 -1.878906 6.609375 -1.207031 6.140625 -0.75 C 5.671875 -0.300781 5.160156 -0.0625 4.609375 -0.03125 L 1.796875 -0.03125 L 1.796875 -1.59375 L 4.203125 -1.59375 C 4.503906 -1.613281 4.785156 -1.726562 5.046875 -1.9375 C 5.304688 -2.144531 5.503906 -2.382812 5.640625 -2.65625 C 5.773438 -2.925781 5.890625 -3.222656 5.984375 -3.546875 L 7.03125 -6.9375 Z M 8.671875 -6.9375 "/></g></g><g transform="translate(100.754417, 205.902013)"><g><path d="M 4.21875 -6.28125 C 4.21875 -6.519531 4.300781 -6.71875 4.46875 -6.875 C 4.632812 -7.039062 4.832031 -7.125 5.0625 -7.125 C 5.300781 -7.125 5.5 -7.039062 5.65625 -6.875 C 5.820312 -6.71875 5.90625 -6.519531 5.90625 -6.28125 C 5.90625 -6.050781 5.820312 -5.851562 5.65625 -5.6875 C 5.5 -5.519531 5.300781 -5.4375 5.0625 -5.4375 C 4.832031 -5.4375 4.632812 -5.519531 4.46875 -5.6875 C 4.300781 -5.851562 4.21875 -6.050781 4.21875 -6.28125 Z M 6.234375 -6.28125 C 6.234375 -6.519531 6.316406 -6.71875 6.484375 -6.875 C 6.648438 -7.039062 6.847656 -7.125 7.078125 -7.125 C 7.316406 -7.125 7.515625 -7.039062 7.671875 -6.875 C 7.835938 -6.71875 7.921875 -6.519531 7.921875 -6.28125 C 7.921875 -6.050781 7.835938 -5.851562 7.671875 -5.6875 C 7.515625 -5.519531 7.316406 -5.4375 7.078125 -5.4375 C 6.847656 -5.4375 6.648438 -5.519531 6.484375 -5.6875 C 6.316406 -5.851562 6.234375 -6.050781 6.234375 -6.28125 Z M 2.484375 -6.96875 L 2.484375 -4.3125 L 7.84375 -4.3125 L 7.84375 -2.75 L 2.484375 -2.75 L 2.484375 -0.015625 L 0.90625 -0.015625 L 0.90625 -6.96875 Z M 2.484375 -6.96875 "/></g></g></g><g fill="#fefefe" fill-opacity="1"><g transform="translate(183.098928, 205.902013)"><g><path d="M 3.359375 0.125 C 3.097656 0.125 2.835938 0.078125 2.578125 -0.015625 C 2.316406 -0.109375 2.0625 -0.242188 1.8125 -0.421875 C 1.570312 -0.609375 1.363281 -0.851562 1.1875 -1.15625 C 1.007812 -1.46875 0.910156 -1.832031 0.890625 -2.25 L 0.890625 -5.359375 L 2.46875 -5.359375 L 2.46875 -2.34375 C 2.46875 -2.15625 2.503906 -1.992188 2.578125 -1.859375 C 2.648438 -1.734375 2.726562 -1.632812 2.8125 -1.5625 C 2.894531 -1.488281 2.984375 -1.429688 3.078125 -1.390625 C 3.171875 -1.359375 3.265625 -1.34375 3.359375 -1.34375 C 3.453125 -1.34375 3.546875 -1.359375 3.640625 -1.390625 C 3.734375 -1.429688 3.820312 -1.488281 3.90625 -1.5625 C 3.988281 -1.632812 4.066406 -1.734375 4.140625 -1.859375 C 4.210938 -1.992188 4.25 -2.15625 4.25 -2.34375 L 4.25 -5.359375 L 5.828125 -5.359375 L 5.828125 -2.34375 C 5.835938 -2.15625 5.875 -2 5.9375 -1.875 C 6.007812 -1.738281 6.085938 -1.632812 6.171875 -1.5625 C 6.265625 -1.488281 6.351562 -1.429688 6.4375 -1.390625 C 6.53125 -1.359375 6.625 -1.34375 6.71875 -1.34375 C 6.8125 -1.34375 6.90625 -1.359375 7 -1.390625 C 7.09375 -1.429688 7.179688 -1.488281 7.265625 -1.5625 C 7.347656 -1.632812 7.425781 -1.734375 7.5 -1.859375 C 7.570312 -1.992188 7.609375 -2.15625 7.609375 -2.34375 L 7.609375 -5.359375 L 9.1875 -5.359375 L 9.1875 -2.25 C 9.1875 -1.832031 9.09375 -1.46875 8.90625 -1.15625 C 8.726562 -0.851562 8.519531 -0.609375 8.28125 -0.421875 C 8.039062 -0.242188 7.789062 -0.109375 7.53125 -0.015625 C 7.269531 0.078125 7.003906 0.125 6.734375 0.125 C 6.460938 0.125 6.195312 0.078125 5.9375 -0.015625 C 5.675781 -0.109375 5.425781 -0.25 5.1875 -0.4375 C 5.132812 -0.46875 5.085938 -0.503906 5.046875 -0.546875 C 5.003906 -0.503906 4.960938 -0.46875 4.921875 -0.4375 C 4.679688 -0.25 4.429688 -0.109375 4.171875 -0.015625 C 3.910156 0.078125 3.640625 0.125 3.359375 0.125 Z M 3.359375 0.125 "/></g></g><g transform="translate(193.177052, 205.902013)"><g><path d="M 3.328125 -0.03125 C 2.640625 -0.0507812 2.117188 -0.210938 1.765625 -0.515625 C 1.421875 -0.816406 1.171875 -1.15625 1.015625 -1.53125 C 0.859375 -1.90625 0.78125 -2.289062 0.78125 -2.6875 C 0.78125 -3.09375 0.851562 -3.484375 1 -3.859375 C 1.15625 -4.242188 1.410156 -4.582031 1.765625 -4.875 C 2.117188 -5.175781 2.570312 -5.332031 3.125 -5.34375 L 8.1875 -5.34375 L 8.1875 -3.859375 L 3.1875 -3.859375 C 3.019531 -3.859375 2.867188 -3.796875 2.734375 -3.671875 C 2.609375 -3.554688 2.515625 -3.40625 2.453125 -3.21875 C 2.398438 -3.03125 2.375 -2.847656 2.375 -2.671875 C 2.375 -2.472656 2.398438 -2.28125 2.453125 -2.09375 C 2.515625 -1.90625 2.609375 -1.753906 2.734375 -1.640625 C 2.867188 -1.535156 3.019531 -1.476562 3.1875 -1.46875 L 8.1875 -1.46875 L 8.1875 -0.03125 Z M 8.1875 -2.171875 L 3.171875 -2.171875 L 3.171875 -3.234375 L 8.1875 -3.234375 Z M 8.1875 -2.171875 "/></g></g><g transform="translate(202.212208, 205.902013)"><g><path d="M 2.46875 -6.96875 L 2.46875 -1.90625 C 2.46875 -1.707031 2.566406 -1.601562 2.765625 -1.59375 L 6.875 -1.59375 C 7.019531 -1.601562 7.144531 -1.664062 7.25 -1.78125 C 7.363281 -1.90625 7.445312 -2.046875 7.5 -2.203125 C 7.550781 -2.367188 7.578125 -2.535156 7.578125 -2.703125 C 7.578125 -2.859375 7.550781 -3.015625 7.5 -3.171875 C 7.445312 -3.328125 7.363281 -3.46875 7.25 -3.59375 C 7.144531 -3.71875 7.019531 -3.78125 6.875 -3.78125 L 3.21875 -3.78125 L 3.21875 -5.34375 L 6.828125 -5.34375 C 7.367188 -5.332031 7.816406 -5.175781 8.171875 -4.875 C 8.523438 -4.582031 8.78125 -4.242188 8.9375 -3.859375 C 9.09375 -3.484375 9.171875 -3.09375 9.171875 -2.6875 C 9.171875 -2.289062 9.09375 -1.90625 8.9375 -1.53125 C 8.78125 -1.15625 8.523438 -0.816406 8.171875 -0.515625 C 7.816406 -0.210938 7.296875 -0.0507812 6.609375 -0.03125 L 1.6875 -0.03125 C 1.46875 -0.03125 1.28125 -0.0976562 1.125 -0.234375 C 0.96875 -0.378906 0.882812 -0.5625 0.875 -0.78125 L 0.875 -6.96875 Z M 2.46875 -6.96875 "/></g></g><g transform="translate(212.278613, 205.902013)"><g><path d="M 4.5 -8.25 C 4.5 -8.488281 4.582031 -8.6875 4.75 -8.84375 C 4.914062 -9.007812 5.113281 -9.09375 5.34375 -9.09375 C 5.582031 -9.09375 5.78125 -9.007812 5.9375 -8.84375 C 6.101562 -8.6875 6.1875 -8.488281 6.1875 -8.25 C 6.1875 -8.019531 6.101562 -7.820312 5.9375 -7.65625 C 5.78125 -7.488281 5.582031 -7.40625 5.34375 -7.40625 C 5.113281 -7.40625 4.914062 -7.488281 4.75 -7.65625 C 4.582031 -7.820312 4.5 -8.019531 4.5 -8.25 Z M 6.515625 -8.25 C 6.515625 -8.488281 6.597656 -8.6875 6.765625 -8.84375 C 6.929688 -9.007812 7.128906 -9.09375 7.359375 -9.09375 C 7.597656 -9.09375 7.796875 -9.007812 7.953125 -8.84375 C 8.117188 -8.6875 8.203125 -8.488281 8.203125 -8.25 C 8.203125 -8.019531 8.117188 -7.820312 7.953125 -7.65625 C 7.796875 -7.488281 7.597656 -7.40625 7.359375 -7.40625 C 7.128906 -7.40625 6.929688 -7.488281 6.765625 -7.65625 C 6.597656 -7.820312 6.515625 -8.019531 6.515625 -8.25 Z M 0.828125 -6.9375 L 8.03125 -6.9375 L 8.03125 -5.375 L 0.828125 -5.375 Z M 0.828125 -4.3125 L 8.078125 -4.3125 L 8.078125 -2.75 L 5.765625 -2.75 C 5.722656 -2.4375 5.660156 -2.128906 5.578125 -1.828125 C 5.421875 -1.335938 5.164062 -0.921875 4.8125 -0.578125 C 4.457031 -0.242188 4.003906 -0.0625 3.453125 -0.03125 L 0.828125 -0.03125 L 0.828125 -1.59375 L 3.0625 -1.59375 C 3.351562 -1.613281 3.597656 -1.726562 3.796875 -1.9375 C 3.992188 -2.144531 4.117188 -2.382812 4.171875 -2.65625 C 4.171875 -2.6875 4.175781 -2.71875 4.1875 -2.75 L 0.828125 -2.75 Z M 0.828125 -4.3125 "/></g></g><g transform="translate(221.137988, 205.902013)"><g><path d="M 5.53125 -8.25 C 5.53125 -8.488281 5.613281 -8.6875 5.78125 -8.84375 C 5.945312 -9.007812 6.144531 -9.09375 6.375 -9.09375 C 6.613281 -9.09375 6.8125 -9.007812 6.96875 -8.84375 C 7.132812 -8.6875 7.21875 -8.488281 7.21875 -8.25 C 7.21875 -8.019531 7.132812 -7.820312 6.96875 -7.65625 C 6.8125 -7.488281 6.613281 -7.40625 6.375 -7.40625 C 6.144531 -7.40625 5.945312 -7.488281 5.78125 -7.65625 C 5.613281 -7.820312 5.53125 -8.019531 5.53125 -8.25 Z M 7.546875 -8.25 C 7.546875 -8.488281 7.628906 -8.6875 7.796875 -8.84375 C 7.960938 -9.007812 8.160156 -9.09375 8.390625 -9.09375 C 8.628906 -9.09375 8.828125 -9.007812 8.984375 -8.84375 C 9.148438 -8.6875 9.234375 -8.488281 9.234375 -8.25 C 9.234375 -8.019531 9.148438 -7.820312 8.984375 -7.65625 C 8.828125 -7.488281 8.628906 -7.40625 8.390625 -7.40625 C 8.160156 -7.40625 7.960938 -7.488281 7.796875 -7.65625 C 7.628906 -7.820312 7.546875 -8.019531 7.546875 -8.25 Z M 0.828125 -6.09375 L 2.28125 -6.09375 L 2.28125 -7.15625 L 3.875 -7.15625 L 3.875 -6.09375 L 6.46875 -6.09375 L 6.578125 -7.15625 L 8.15625 -7.15625 L 8.046875 -6.09375 L 9.4375 -6.09375 L 9.4375 -4.53125 L 7.828125 -4.53125 L 7.671875 -3.40625 C 7.585938 -2.84375 7.441406 -2.316406 7.234375 -1.828125 C 7.003906 -1.335938 6.6875 -0.921875 6.28125 -0.578125 C 5.882812 -0.242188 5.410156 -0.0625 4.859375 -0.03125 L 2.375 -0.03125 L 2.375 -1.59375 L 4.671875 -1.59375 C 4.972656 -1.613281 5.234375 -1.726562 5.453125 -1.9375 C 5.679688 -2.144531 5.835938 -2.382812 5.921875 -2.65625 C 6.003906 -2.925781 6.066406 -3.222656 6.109375 -3.546875 L 6.25 -4.53125 L 3.875 -4.53125 L 3.875 -2.703125 L 2.28125 -2.703125 L 2.28125 -4.53125 L 0.828125 -4.53125 Z M 0.828125 -6.09375 "/></g></g><g transform="translate(231.345018, 205.902013)"><g><path d="M 8.09375 -5.484375 C 7.71875 -4.566406 7.296875 -3.878906 6.828125 -3.421875 C 6.453125 -3.066406 6.0625 -2.859375 5.65625 -2.796875 L 5.65625 -0.015625 L 4.0625 -0.015625 L 4.0625 -2.75 L 0.71875 -2.75 L 0.71875 -4.3125 L 4.890625 -4.3125 C 5.179688 -4.332031 5.457031 -4.445312 5.71875 -4.65625 C 5.988281 -4.863281 6.1875 -5.101562 6.3125 -5.375 C 6.445312 -5.644531 6.570312 -5.929688 6.6875 -6.234375 L 6.984375 -7.03125 L 8.671875 -7.03125 Z M 8.09375 -5.484375 "/></g></g><g transform="translate(240.274705, 205.902013)"><g><path d="M 0.875 -5.84375 L 4.328125 -5.84375 L 4.4375 -6.96875 L 6.03125 -6.96875 L 5.90625 -5.84375 L 8.171875 -5.84375 L 8.171875 -4.265625 L 5.703125 -4.265625 L 5.578125 -3.40625 C 5.503906 -2.84375 5.359375 -2.316406 5.140625 -1.828125 C 4.921875 -1.335938 4.609375 -0.921875 4.203125 -0.578125 C 3.796875 -0.242188 3.320312 -0.0625 2.78125 -0.03125 L 0.859375 -0.03125 L 0.859375 -1.59375 L 2.59375 -1.59375 C 2.882812 -1.613281 3.140625 -1.726562 3.359375 -1.9375 C 3.585938 -2.144531 3.742188 -2.382812 3.828125 -2.65625 C 3.921875 -2.925781 3.984375 -3.222656 4.015625 -3.546875 L 4.109375 -4.265625 L 0.875 -4.265625 Z M 0.875 -5.84375 "/></g></g><g transform="translate(249.286423, 205.902013)"><g><path d="M 0.875 -4.3125 L 8.0625 -4.3125 L 8.0625 -2.75 L 0.875 -2.75 Z M 0.875 -4.3125 "/></g></g></g><g fill="#fefefe" fill-opacity="1"><g transform="translate(164.345649, 205.902013)"><g><path d="M 8.09375 -3.4375 L 9.21875 -3.4375 L 9.21875 -4.125 L 8.09375 -4.125 Z M 8.09375 -6.03125 L 8.09375 -5.375 L 9.21875 -5.375 L 9.21875 -6.03125 Z M 5.390625 -3.4375 L 6.609375 -3.4375 L 6.609375 -4.125 L 5.390625 -4.125 Z M 5.390625 -7.140625 L 6.609375 -7.140625 L 6.609375 -7.703125 L 5.390625 -7.703125 Z M 5.390625 -6.03125 L 5.390625 -5.375 L 6.609375 -5.375 L 6.609375 -6.03125 Z M 11.59375 -0.421875 L 10.984375 0.875 C 9.804688 0.269531 8.84375 -0.375 8.09375 -1.0625 L 8.09375 1.015625 L 6.609375 1.015625 L 6.609375 -2.328125 L 5.390625 -2.328125 L 5.390625 1.015625 L 3.921875 1.015625 L 3.921875 -1.0625 C 3.160156 -0.375 2.191406 0.269531 1.015625 0.875 L 0.40625 -0.421875 C 1.664062 -1.003906 2.695312 -1.640625 3.5 -2.328125 L 1.34375 -2.328125 L 1.34375 -3.4375 L 3.921875 -3.4375 L 3.921875 -4.125 L 0.671875 -4.125 L 0.671875 -5.375 L 3.921875 -5.375 L 3.921875 -6.03125 L 1.34375 -6.03125 L 1.34375 -7.140625 L 3.921875 -7.140625 L 3.921875 -7.703125 L 0.796875 -7.703125 L 0.796875 -8.9375 L 3.453125 -8.9375 C 3.359375 -9.125 3.222656 -9.367188 3.046875 -9.671875 L 4.4375 -9.984375 C 4.65625 -9.628906 4.851562 -9.28125 5.03125 -8.9375 L 7.0625 -8.9375 C 7.195312 -9.1875 7.359375 -9.535156 7.546875 -9.984375 L 9 -9.703125 C 8.957031 -9.597656 8.832031 -9.34375 8.625 -8.9375 L 11.203125 -8.9375 L 11.203125 -7.703125 L 8.09375 -7.703125 L 8.09375 -7.140625 L 10.578125 -7.140625 L 10.578125 -5.375 L 11.328125 -5.375 L 11.328125 -4.125 L 10.578125 -4.125 L 10.578125 -2.328125 L 8.515625 -2.328125 C 9.304688 -1.640625 10.332031 -1.003906 11.59375 -0.421875 Z M 11.59375 -0.421875 "/></g></g></g><g fill="#fefefe" fill-opacity="1"><g transform="translate(114.445859, 205.902013)"><g><path d="M 0.765625 -1.59375 L 3.671875 -1.59375 L 3.671875 -5.375 L 0.765625 -5.375 L 0.765625 -6.9375 L 8.140625 -6.9375 L 8.140625 -5.375 L 5.25 -5.375 L 5.25 -1.59375 L 8.140625 -1.59375 L 8.140625 -0.03125 L 0.765625 -0.03125 Z M 0.765625 -1.59375 "/></g></g><g transform="translate(123.352109, 205.902013)"><g><path d="M 0.6875 -6.9375 L 5.03125 -6.9375 L 5.03125 -5.375 L 0.6875 -5.375 Z M 8.671875 -6.9375 L 7.3125 -2.765625 C 7 -1.878906 6.609375 -1.207031 6.140625 -0.75 C 5.671875 -0.300781 5.160156 -0.0625 4.609375 -0.03125 L 1.796875 -0.03125 L 1.796875 -1.59375 L 4.203125 -1.59375 C 4.503906 -1.613281 4.785156 -1.726562 5.046875 -1.9375 C 5.304688 -2.144531 5.503906 -2.382812 5.640625 -2.65625 C 5.773438 -2.925781 5.890625 -3.222656 5.984375 -3.546875 L 7.03125 -6.9375 Z M 8.671875 -6.9375 "/></g></g><g transform="translate(132.492733, 205.902013)"><g><path d="M 5.203125 -8.25 C 5.203125 -8.488281 5.285156 -8.6875 5.453125 -8.84375 C 5.617188 -9.007812 5.816406 -9.09375 6.046875 -9.09375 C 6.285156 -9.09375 6.484375 -9.007812 6.640625 -8.84375 C 6.804688 -8.6875 6.890625 -8.488281 6.890625 -8.25 C 6.890625 -8.019531 6.804688 -7.820312 6.640625 -7.65625 C 6.484375 -7.488281 6.285156 -7.40625 6.046875 -7.40625 C 5.816406 -7.40625 5.617188 -7.488281 5.453125 -7.65625 C 5.285156 -7.820312 5.203125 -8.019531 5.203125 -8.25 Z M 7.21875 -8.25 C 7.21875 -8.488281 7.300781 -8.6875 7.46875 -8.84375 C 7.632812 -9.007812 7.832031 -9.09375 8.0625 -9.09375 C 8.300781 -9.09375 8.5 -9.007812 8.65625 -8.84375 C 8.820312 -8.6875 8.90625 -8.488281 8.90625 -8.25 C 8.90625 -8.019531 8.820312 -7.820312 8.65625 -7.65625 C 8.5 -7.488281 8.300781 -7.40625 8.0625 -7.40625 C 7.832031 -7.40625 7.632812 -7.488281 7.46875 -7.65625 C 7.300781 -7.820312 7.21875 -8.019531 7.21875 -8.25 Z M 0.78125 -6.9375 L 5.5 -6.9375 L 5.5 -5.375 L 0.78125 -5.375 Z M 0.78125 -4.5 L 5.171875 -4.5 L 5.171875 -2.9375 L 0.78125 -2.9375 Z M 8.75 -6.921875 L 8.25 -3.40625 C 8.175781 -2.84375 8.03125 -2.316406 7.8125 -1.828125 C 7.59375 -1.335938 7.28125 -0.921875 6.875 -0.578125 C 6.46875 -0.242188 5.992188 -0.0625 5.453125 -0.03125 L 2.640625 -0.03125 L 2.640625 -1.59375 L 5.265625 -1.59375 C 5.554688 -1.613281 5.8125 -1.726562 6.03125 -1.9375 C 6.257812 -2.144531 6.414062 -2.382812 6.5 -2.65625 C 6.59375 -2.925781 6.65625 -3.222656 6.6875 -3.546875 L 7.15625 -6.921875 Z M 8.75 -6.921875 "/></g></g><g transform="translate(141.867732, 205.902013)"><g><path d="M 0.828125 -1.59375 L 7.8125 -1.59375 L 7.8125 -0.03125 L 0.828125 -0.03125 Z M 0.828125 -6.9375 L 7.8125 -6.9375 L 7.8125 -5.375 L 0.828125 -5.375 Z M 0.828125 -6.9375 "/></g></g><g transform="translate(150.539607, 205.902013)"><g><path d="M 0.828125 -6.9375 L 6.40625 -6.9375 C 6.457031 -6.9375 6.503906 -6.929688 6.546875 -6.921875 L 6.625 -6.921875 C 7.164062 -6.910156 7.613281 -6.765625 7.96875 -6.484375 C 8.320312 -6.210938 8.578125 -5.898438 8.734375 -5.546875 C 8.890625 -5.191406 8.96875 -4.835938 8.96875 -4.484375 C 8.96875 -4.109375 8.890625 -3.742188 8.734375 -3.390625 C 8.585938 -3.035156 8.332031 -2.71875 7.96875 -2.4375 C 7.613281 -2.164062 7.164062 -2.035156 6.625 -2.046875 L 5.3125 -2.046875 L 5.3125 -3.609375 L 6.6875 -3.609375 C 6.84375 -3.609375 6.96875 -3.65625 7.0625 -3.75 C 7.15625 -3.851562 7.222656 -3.96875 7.265625 -4.09375 C 7.316406 -4.226562 7.34375 -4.359375 7.34375 -4.484375 C 7.34375 -4.609375 7.316406 -4.734375 7.265625 -4.859375 C 7.222656 -4.992188 7.15625 -5.109375 7.0625 -5.203125 C 6.96875 -5.304688 6.84375 -5.363281 6.6875 -5.375 L 0.828125 -5.375 Z M 5 -4.625 L 4.828125 -3.40625 C 4.753906 -2.84375 4.609375 -2.316406 4.390625 -1.828125 C 4.171875 -1.335938 3.859375 -0.921875 3.453125 -0.578125 C 3.046875 -0.242188 2.570312 -0.0625 2.03125 -0.03125 L 0.90625 -0.03125 L 0.90625 -1.59375 L 1.84375 -1.59375 C 2.132812 -1.613281 2.390625 -1.726562 2.609375 -1.9375 C 2.835938 -2.144531 2.992188 -2.382812 3.078125 -2.65625 C 3.171875 -2.925781 3.234375 -3.222656 3.265625 -3.546875 L 3.40625 -4.625 Z M 5 -4.625 "/></g></g></g></svg>